<svg xmlns="http://www.w3.org/2000/svg" width="740.676" height="694.825" viewBox="0 0 740.676 694.825">
  <g id="Favicon" transform="translate(1.5 1.5)">
    <g id="Group_7" data-name="Group 7" transform="translate(39.334 82.999)">
      <path id="Path_19" data-name="Path 19" d="M385.343,1003.151,118.116,870.138v-273.8L385.343,463.32V438.27L102.322,579.146a11.293,11.293,0,0,0-6.191,10.134V877.192a11.291,11.291,0,0,0,6.191,10.134L385.343,1028.2Z" transform="translate(-96.131 -438.27)" fill="#030504" stroke="#1a1818" stroke-linecap="round" stroke-linejoin="round" stroke-width="4.5" opacity="0.05"/>
      <path id="Path_20" data-name="Path 20" d="M580.037,579.146,297.017,438.27v25.05L564.244,596.333v273.8L297.017,1003.151v25.05l283.02-140.876a11.288,11.288,0,0,0,6.191-10.134V589.279A11.29,11.29,0,0,0,580.037,579.146Z" transform="translate(72.777 -438.27)" fill="#030504" stroke="#1a1818" stroke-linecap="round" stroke-linejoin="round" stroke-width="4.5" opacity="0.05"/>
    </g>
    <path id="Path_21" data-name="Path 21" d="M812.368,592.5l-5.778,50.843a4.888,4.888,0,0,1-9.736,0l-5.351-47.1L454.248,421.873V1074.1a10.65,10.65,0,1,1-21.293,0V421.773L95.752,596.124l-5.4,47.5a4.888,4.888,0,0,1-9.736,0l-5.778-50.843a11.261,11.261,0,0,1,.029-2.807v-.009a10.945,10.945,0,0,1,5.826-10.5L438.627,394.393a10.354,10.354,0,0,1,2.08-.823,5.729,5.729,0,0,1,.62-.149.125.125,0,0,1,.068-.02c.184-.04.368-.07.55-.1l.2-.029c.214-.029.425-.05.639-.059.232-.02.475-.031.716-.031h.009c.243,0,.484.011.716.031.214.009.427.03.639.059l.2.029c.193.029.387.07.58.109h.009c.234.05.466.11.688.169a10.916,10.916,0,0,1,1.955.773l.086.041L806.328,579.467a10.888,10.888,0,0,1,5.826,9.255,10.084,10.084,0,0,1,.214,1.241A11.7,11.7,0,0,1,812.368,592.5Z" transform="translate(-74.763 -393.182)" fill="#1a1818" stroke="#1a1818" stroke-miterlimit="10" stroke-width="3" opacity="0.05"/>
    <path id="Path_22" data-name="Path 22" d="M371.472,745.265c-.484.8-.992,1.605-1.5,2.393h-.013C370.467,746.87,370.975,746.068,371.472,745.265Z" transform="translate(173.442 -97.146)" fill="#1a1818" opacity="0.05"/>
    <path id="Path_23" data-name="Path 23" d="M527.507,786.661a8.89,8.89,0,0,1-8.138,5.412,8.706,8.706,0,0,1-3.625-.784l-104.96-47.933c.409-.633.817-1.277,1.206-1.922-.4.645-.808,1.288-1.215,1.922h.009c-24.713,38.591-66.207,64.911-113.768,67.992V791.987c66.407-4.939,118.964-61.892,118.964-131.195S363.424,534.547,297.017,529.608v-19.36c51.257,3.317,95.477,33.641,119.215,77.206L510.965,544.2a8.823,8.823,0,0,1,11.756,4.617,9.227,9.227,0,0,1-4.516,12.057L423.974,603.9c-.283-.708-.576-1.417-.869-2.115.293.7.576,1.406.858,2.115h.011a154.225,154.225,0,0,1-4.295,123.539l103.314,47.171A9.215,9.215,0,0,1,527.507,786.661Z" transform="translate(112.111 -294.751)" fill="#1a1818" stroke="#1a1818" stroke-miterlimit="10" stroke-width="2" opacity="0.05"/>
    <path id="Path_24" data-name="Path 24" d="M371.472,745.265c-.484.8-.992,1.605-1.5,2.393h-.013C370.467,746.87,370.975,746.068,371.472,745.265Z" transform="translate(173.442 -97.146)" fill="#1a1818" opacity="0.05"/>
    <path id="Path_25" data-name="Path 25" d="M261.877,583.41a133,133,0,0,0-24.648,77.431c0,69.871,53.417,127.18,120.588,131.292V811.5c-47.655-2.544-89.392-28.433-114.491-66.7l-101.92,46.537a8.713,8.713,0,0,1-3.625.784,8.89,8.89,0,0,1-8.14-5.412,9.215,9.215,0,0,1,4.515-12.048l100.1-45.7a154.178,154.178,0,0,1-4.4-126.534h.011c.25-.6.492-1.2.744-1.793-.252.6-.5,1.191-.755,1.793l-90.91-41.5a9.226,9.226,0,0,1-4.514-12.057,8.828,8.828,0,0,1,11.763-4.617l91.571,41.812c-.366.655-.735,1.32-1.09,1.975.366-.664.733-1.32,1.1-1.975,24.179-43.262,68.67-73.135,120.045-75.873v19.36C318.447,531.965,283.814,552.647,261.877,583.41Z" transform="translate(-29.27 -294.8)" fill="#1a1818" stroke="#1a1818" stroke-miterlimit="10" stroke-width="2" opacity="0.05"/>
  </g>
</svg>
