<svg xmlns="http://www.w3.org/2000/svg" width="62" height="58.001" viewBox="0 0 62 58.001">
  <g id="directory" transform="translate(-262 2470)">
    <g id="folder_1_" data-name="folder (1)" transform="translate(262 -2470.955)">
      <path id="Path_72" data-name="Path 72" d="M59.6,26.4a1.27,1.27,0,0,0-.965-.443H1.271A1.271,1.271,0,0,0,.014,27.417L4.932,57.878a1.265,1.265,0,0,0,1.256,1.078H53.722a1.265,1.265,0,0,0,1.257-1.081L59.9,27.421A1.268,1.268,0,0,0,59.6,26.4Z"/>
      <path id="Path_73" data-name="Path 73" d="M8,14.956H52v9h4V7.723a1.77,1.77,0,0,0-1.768-1.768H23.566L21.081,1.814A1.775,1.775,0,0,0,19.565.955H5.768A1.771,1.771,0,0,0,4,2.723V23.955H8Z"/>
    </g>
    <path id="Subtraction_1" data-name="Subtraction 1" d="M11.5,28a11.5,11.5,0,1,1,8.132-3.368A11.425,11.425,0,0,1,11.5,28ZM9.544,21.472V25h3.649V21.472ZM9.5,7.36l.432,12h2.856l.432-12Z" transform="translate(301 -2442)" fill="#fff"/>
  </g>
</svg>
