<svg xmlns="http://www.w3.org/2000/svg" width="35.574" height="28.31" viewBox="0 0 35.574 28.31">
  <g id="home_black" transform="translate(0.001 -46.994)">
    <g id="Group_55" data-name="Group 55" transform="translate(-0.001 46.994)">
      <path id="Path_74" data-name="Path 74" d="M78.407,120.939,65.72,131.4a.3.3,0,0,1-.011.066.3.3,0,0,0-.011.066v10.591a1.433,1.433,0,0,0,1.412,1.413h8.473v-8.473h5.649v8.473H89.7a1.434,1.434,0,0,0,1.413-1.413V131.53a.311.311,0,0,0-.022-.132Z" transform="translate(-60.621 -115.224)"/>
      <path id="Path_75" data-name="Path 75" d="M35.328,60.785,30.5,56.769v-9a.68.68,0,0,0-.706-.706H25.553a.679.679,0,0,0-.706.706v4.3l-5.384-4.5a2.737,2.737,0,0,0-3.354,0L.245,60.785A.641.641,0,0,0,0,61.259a.715.715,0,0,0,.154.519l1.368,1.633a.753.753,0,0,0,.463.243.82.82,0,0,0,.53-.154L17.786,50.767,33.055,63.5a.68.68,0,0,0,.463.154h.066a.754.754,0,0,0,.463-.243l1.368-1.633a.714.714,0,0,0,.154-.519A.643.643,0,0,0,35.328,60.785Z" transform="translate(0.001 -46.994)"/>
    </g>
  </g>
</svg>
