<svg xmlns="http://www.w3.org/2000/svg" width="51.253" height="47.382" viewBox="0 0 51.253 47.382">
  <g id="passage-of-time_red" data-name="passage-of-time red" transform="translate(0 -1.775)">
    <g id="Layer_1_65_" transform="translate(0 1.775)">
      <g id="Group_47" data-name="Group 47">
        <path id="Path_52" data-name="Path 52" d="M51.151,21.78a1.078,1.078,0,0,0-.977-.62H46.982A23.674,23.674,0,1,0,44.21,37.318a2.154,2.154,0,0,0-3.728-2.158,19.4,19.4,0,1,1,2.094-14H39.408a1.077,1.077,0,0,0-.829,1.767l5.385,6.461a1.077,1.077,0,0,0,1.654,0L51,22.927A1.076,1.076,0,0,0,51.151,21.78Z" transform="translate(0 -1.775)" fill="#f75454"/>
        <path id="Path_53" data-name="Path 53" d="M22.039,6.713a2.153,2.153,0,0,0-2.154,2.154V21.935a3.765,3.765,0,0,0,2.155,6.856,3.722,3.722,0,0,0,1.59-.364l7.492,4.324a2.131,2.131,0,0,0,1.075.29,2.153,2.153,0,0,0,1.077-4.018l-7.5-4.33a3.751,3.751,0,0,0-1.58-2.755V8.867A2.158,2.158,0,0,0,22.039,6.713Zm0,19.922a1.614,1.614,0,1,1,1.615-1.614A1.617,1.617,0,0,1,22.039,26.635Z" transform="translate(1.653 -1.328)" fill="#f75454"/>
      </g>
    </g>
  </g>
</svg>
