<svg xmlns="http://www.w3.org/2000/svg" width="47.379" height="47.382" viewBox="0 0 47.379 47.382">
  <g id="Scanred" transform="translate(-0.001 0)" style="isolation: isolate">
    <path id="Path_42" data-name="Path 42" d="M31.641,5.421a18.541,18.541,0,1,0-2.535,28.322,3.9,3.9,0,0,0,1.059,1.965L40.692,46.234A3.917,3.917,0,0,0,46.231,40.7L35.7,30.166a3.916,3.916,0,0,0-1.963-1.056A18.559,18.559,0,0,0,31.641,5.421Zm-3.323,22.9a13.841,13.841,0,1,1,0-19.574A13.856,13.856,0,0,1,28.318,28.32Z" transform="translate(0 0)" fill="#f75454"/>
  </g>
</svg>
