<svg id="unsafe" xmlns="http://www.w3.org/2000/svg" width="64.002" height="75.15" viewBox="0 0 64.002 75.15">
  <path id="Path_1" data-name="Path 1" d="M60.62,50.19a37.84,37.84,0,0,1-9.08,14.14A47.47,47.47,0,0,1,33.79,74.85a5.6,5.6,0,0,1-1.72.3H32a5.36,5.36,0,0,1-1.06-.1,6.609,6.609,0,0,1-.73-.2A47.66,47.66,0,0,1,12.44,64.34,37.82,37.82,0,0,1,3.37,50.2C-.3,40.24-.09,29.28.07,20.47v-.14c0-.73.06-1.49.08-2.33a8,8,0,0,1,7.5-7.8c8.64-.48,15.32-3.3,21-8.87h.05a4.81,4.81,0,0,1,6.54,0h0c5.71,5.57,12.4,8.39,21,8.87a8,8,0,0,1,7.5,7.8c0,.85,0,1.61.06,2.34v.05C64.09,29.22,64.3,40.21,60.62,50.19Z" transform="translate(0.001 0)" fill="#f75454"/>
  <path id="Path_3" data-name="Path 3" d="M50.86,37.9A18.75,18.75,0,0,1,32.2,56.63h-.07a18.73,18.73,0,1,1-.27-37.46h.34A18.75,18.75,0,0,1,50.86,37.9Z" transform="translate(0.001 0)" fill="#fff"/>
  <path id="Path_2" data-name="Path 2" d="M60.62,50.19a38.08,38.08,0,0,1-9.08,14.15A47.58,47.58,0,0,1,33.79,74.85a5.67,5.67,0,0,1-1.73.3V0a4.76,4.76,0,0,1,3.2,1.28h.05C41,6.9,47.72,9.71,56.36,10.2a8,8,0,0,1,7.5,7.8c0,.85,0,1.61.07,2.33v.06C64.09,29.22,64.3,40.21,60.62,50.19Z" transform="translate(0.001)" opacity="0.1"/>
  <path id="Path_66" data-name="Path 66" d="M23.08,48.77a2,2,0,0,1-1.42-3.41L39.38,27.64a2,2,0,1,1,2.83,2.83L24.49,48.18a2,2,0,0,1-1.41.59Z" transform="translate(0.001 0)" fill="#b4d2d7"/>
  <path id="Path_67" data-name="Path 67" d="M40.92,48.9a2,2,0,0,1-1.41-.59L21.79,30.59a2,2,0,0,1,2.83-2.83L42.34,45.48a2,2,0,0,1-1.42,3.42Z" transform="translate(0.001 0)" fill="#b4d2d7"/>
</svg>
