<svg id="safeshield" xmlns="http://www.w3.org/2000/svg" width="64" height="75.155" viewBox="0 0 64 75.155">
  <path id="Path_1" data-name="Path 1" d="M61.12,50.188a37.917,37.917,0,0,1-9.081,14.147A47.535,47.535,0,0,1,34.29,74.851a5.43,5.43,0,0,1-1.725.3H32.5a5.507,5.507,0,0,1-1.058-.1,5.735,5.735,0,0,1-.728-.2,47.532,47.532,0,0,1-17.769-10.51A37.845,37.845,0,0,1,3.866,50.2C.2,40.245.407,29.279.575,20.467l0-.135C.612,19.6.634,18.84.646,18a7.965,7.965,0,0,1,7.5-7.8c8.641-.482,15.326-3.3,21.037-8.867l.05-.046a4.814,4.814,0,0,1,6.536,0l.049.046c5.713,5.567,12.4,8.385,21.038,8.867a7.965,7.965,0,0,1,7.5,7.8c.012.85.034,1.613.068,2.336l0,.057C64.594,29.218,64.8,40.205,61.12,50.188Zm0,0" transform="translate(-0.5 0)" fill="#00dd80"/>
  <path id="Path_2" data-name="Path 2" d="M247.5,50.192a37.917,37.917,0,0,1-9.081,14.147,47.535,47.535,0,0,1-17.748,10.515,5.43,5.43,0,0,1-1.725.3V0a4.822,4.822,0,0,1,3.2,1.279l.049.046C227.914,6.9,234.6,9.714,243.24,10.2a7.965,7.965,0,0,1,7.5,7.8c.012.85.034,1.613.068,2.336l0,.057C250.977,29.221,251.184,40.208,247.5,50.192Zm0,0" transform="translate(-186.883 -0.003)" fill="#00aa63"/>
  <path id="Path_3" data-name="Path 3" d="M128.356,147.128a18.754,18.754,0,0,1-18.664,18.731h-.066a18.731,18.731,0,1,1,0-37.461h.066A18.754,18.754,0,0,1,128.356,147.128Zm0,0" transform="translate(-77.626 -109.551)" fill="#fff"/>
  <path id="Path_4" data-name="Path 4" d="M237.613,147.128a18.754,18.754,0,0,1-18.664,18.731V128.4A18.754,18.754,0,0,1,237.613,147.128Zm0,0" transform="translate(-186.883 -109.551)" fill="#e1ebf0"/>
  <path id="Path_5" data-name="Path 5" d="M172.121,215.744l-8.436,8.437L161.863,226a2.207,2.207,0,0,1-3.12,0l-3.919-3.921a2.2,2.2,0,1,1,3.118-3.118l2.361,2.361,8.7-8.7a2.2,2.2,0,1,1,3.118,3.118Zm0,0" transform="translate(-131.62 -180.864)" fill="#b4d2d7"/>
  <path id="Path_6" data-name="Path 6" d="M227.385,215.744l-8.436,8.437v-6.238l5.318-5.317a2.2,2.2,0,1,1,3.118,3.118Zm0,0" transform="translate(-186.883 -180.864)" fill="#6fa5aa"/>
</svg>
